PathFileType	4	(X/Y/Z)	Patient4_TMGait_0pt7_01_right_09.trc.trc
DataRate	CameraRate	NumFrames	NumMarkers	Units	OrigDataRate	OrigDataStartFrame	OrigNumFrames
90.322580645161	90.322580645161	6	33	mm	90.322580645161	106	       141
Frame#	Time	Sacral			L.Shoulder			Chest			R.Shoulder			Neck			R.ASIS			L.ASIS			R.Thigh.Superior			R.Thigh.Lateral			R.Thigh.Inferior			R.Patella			L.Thigh.Superior			L.Thigh.Lateral			L.Thigh.Inferior			L.Patella			L.Shank.Superior			L.Shank.Lateral			L.Shank.Inferior			R.Shank.Superior			R.Shank.Lateral			R.Shank.Inferior			R.Heel			R.Midfoot.Superior			R.Midfoot.Lateral			R.Toe			L.Heel			L.Midfoot.Lateral			L.Midfoot.Superior			L.Toe			L.Elbow			L.Wrist			R.Elbow			R.Wrist			
		X1	Y1	Z1	X2	Y2	Z2	X3	Y3	Z3	X4	Y4	Z4	X5	Y5	Z5	X6	Y6	Z6	X7	Y7	Z7	X8	Y8	Z8	X9	Y9	Z9	X10	Y10	Z10	X11	Y11	Z11	X12	Y12	Z12	X13	Y13	Z13	X14	Y14	Z14	X15	Y15	Z15	X16	Y16	Z16	X17	Y17	Z17	X18	Y18	Z18	X19	Y19	Z19	X20	Y20	Z20	X21	Y21	Z21	X22	Y22	Z22	X23	Y23	Z23	X24	Y24	Z24	X25	Y25	Z25	X26	Y26	Z26	X27	Y27	Z27	X28	Y28	Z28	X29	Y29	Z29	X30	Y30	Z30	X31	Y31	Z31	X32	Y32	Z32	X33	Y33	Z33	

106	10.972500000000	792.356200250816	1008.562112294554	433.032570284008	978.996084358729	1434.008318770183	250.604258167324	1078.132915737550	1363.434930444687	414.779354220004	993.752773086811	1441.586704232946	586.874942542644	980.750757792134	1498.272856097850	406.502298813217	1016.718214711543	950.725498531598	557.024525528511	1011.853099817722	965.896198663319	282.262102517588	1111.333536140186	794.095601224951	535.112167564126	1080.711830588557	671.586659993948	612.331915567877	1176.545500254832	639.557055344782	537.198811362665	1206.226240490993	529.959666579541	563.000847758333	1049.803736673973	749.637779755594	314.111639871109	951.914510035213	639.004796951727	254.601601683122	1027.838608928662	556.026793069050	319.397241127692	1022.301062043917	487.718641063083	330.982800504890	995.618463071545	417.455078533314	322.705842812258	904.385747678669	304.089558380469	274.203017248195	953.861243788452	193.382786686139	346.844751327313	1140.122170797391	447.138989001069	568.855992031040	1023.916184105392	390.972784321870	625.137234812555	1028.102350850413	280.070390372378	578.656911239082	840.410838798966	193.266236775218	544.065944059433	1011.584223950933	151.439007996509	591.991976295137	901.997346451869	141.217215546125	620.911092114642	1086.325515776715	47.278848654188	624.064329251083	823.265539337181	38.577856049866	392.076773520430	896.021046522710	35.560684521098	309.920467647100	979.385218309216	96.024683410333	335.507887865120	1107.722885869854	43.453147017495	304.539263315465	985.592459747517	1086.756836010206	120.846257155833	1131.136457391678	869.773666348733	122.757735874913	961.216198134251	1092.715519410817	703.031396748305	1131.348104336233	899.975215278970	657.169208277140	
107	10.983571428571	791.665311264876	1008.412265965079	432.030878158889	980.378261649577	1434.086466064389	250.737866490768	1078.006812083360	1363.143120923101	415.705633140050	992.308156709430	1441.167928289131	587.266024248237	980.814389717193	1498.139617268422	406.686669443161	1015.600394321527	950.965636136860	557.323863856469	1011.792716500372	965.958037639303	282.291517887715	1111.189960136694	796.038382297637	534.867257041086	1081.999804494506	673.037575680702	612.077845362639	1177.934430298468	642.112185752504	536.828916702915	1209.621705642767	534.071507032685	562.489270446210	1047.007393654599	748.528024980832	314.595854536460	947.618048038856	639.107180660083	254.150476702103	1021.634580242542	555.121386305034	319.426240800460	1015.059073102966	487.165877107801	330.986007387347	988.540100973126	417.202309601626	322.544733227798	897.269779640669	303.964362274556	273.908986261505	946.350156845903	193.283136311672	346.895296519659	1147.163635929496	449.357883083453	568.724356694121	1034.800857134418	387.435825996240	626.428998269173	1043.975603519114	276.891205422606	579.773964943788	860.579551467683	180.554994050456	547.364670680401	1034.089227942526	147.634420390942	593.327647989227	925.637195390327	131.883034208726	623.490523504190	1114.513155489672	47.558534538916	624.757264740242	815.461259200432	38.561350147719	392.052569188970	888.215826060542	35.526709226578	309.931774144207	971.593072619080	96.015280407544	335.536602948798	1099.919243460971	43.476243491536	304.554545362741	994.754254599162	1088.704638037599	117.994778197421	1150.920302533282	879.099956633390	120.603185861159	951.470512112757	1093.238245836378	704.057432145092	1105.839812801624	886.102560093527	664.891622457785	
108	10.994642857143	791.098818737507	1008.219798854980	431.147303563179	981.856570319754	1434.091971115811	251.031138671464	1077.985041218571	1362.741379855220	416.748605883659	991.021448711345	1440.655116285456	587.790629715765	980.971940793187	1497.909496501522	407.028798617617	1014.569757268485	951.030588420627	557.659453032266	1011.782276168322	965.888493516180	282.396579368519	1110.739501637114	797.392516281093	534.654499735086	1082.582149040316	673.952138453674	611.811157404771	1178.566741135250	643.918523294820	536.528600003955	1212.101527196658	537.625862359168	561.963713902207	1044.177291624731	747.342738014911	315.130382906347	943.286592123267	639.190317530597	253.742602672068	1015.344202954760	554.210955292103	319.492204921948	1007.776150395188	486.646197515978	330.965624453997	981.374049738380	416.991268156553	322.384465485657	890.075523284271	303.857151950020	273.613549775636	938.795187502527	193.205731477473	346.945301894109	1153.498025903154	451.221276588967	568.595945278691	1045.539088333228	383.508193980514	627.836146599683	1059.913500150924	273.617406531632	580.957020861106	881.674736055775	167.493939422770	550.827702232504	1057.046224846532	144.109574254528	594.705499901848	950.155843297035	122.597413750025	626.167490173054	1143.163049394401	48.676078501945	625.408808705735	807.663387142983	38.550955482019	392.017938762941	880.404427126644	35.489951913359	309.945694039009	963.795483245731	96.016957909041	335.558592383851	1092.102717659153	43.520613840049	304.572276351784	1003.467466806607	1090.834519663254	115.318217266465	1170.080448880017	889.282269491438	118.910894661398	941.809414495174	1093.872851418977	704.976299962180	1079.389561357038	873.945766462918	673.163107105734	
109	11.005714285714	790.675150115640	1007.978011992724	430.369787925412	983.407899544567	1434.014568696927	251.483974603478	1078.062278127457	1362.230058798454	417.899584884257	989.894063250380	1440.044959740001	588.436838437746	981.221532223044	1497.576435964546	407.525193139479	1013.643274034783	950.908475060571	558.029810089281	1011.843148156001	965.680310499003	282.581692447475	1109.986487262768	798.110826495228	534.489202045354	1082.460163960375	674.299968935710	611.564036235313	1178.442772627732	644.918414854310	536.317661561681	1213.654348781922	540.562550643525	561.458028983607	1041.319926856171	746.072604699236	315.673820797293	938.910777371926	639.255231852305	253.366757780972	1008.985103277245	553.295534718128	319.560352146232	1000.478735666047	486.153179178102	330.889065539357	974.127795823616	416.826705301948	322.201766584711	882.795254866267	303.775444485286	273.306014662680	931.193607891001	193.154521272325	346.978583544947	1159.079467585655	452.708410912740	568.500925595080	1056.040587753369	379.263985281155	629.322845279770	1075.790549238036	270.346170861230	582.172519755335	903.609544081560	154.280395874089	554.317604522531	1080.272145219617	141.029282821014	596.096098258423	975.381410830800	113.552758127619	628.841827874934	1172.005358816193	50.806491009096	625.998027128135	799.867375138645	38.549823397852	391.974167506581	872.584844153203	35.451784338315	309.960411317055	955.990749334715	96.027569213774	335.568350805992	1084.271313189607	43.582015315330	304.591923679068	1011.724579604099	1093.093484919630	112.819882976070	1188.533884241404	900.278225381493	117.688111060374	932.167183132428	1094.633987834335	705.736603059333	1052.287225675052	863.633774824025	681.854966834661	
110	11.016785714286	790.412640958372	1007.667956239912	429.688776736868	985.007033793084	1433.840945470980	252.093030351811	1078.231206717722	1361.607641293232	419.149171864621	988.920193678916	1439.332154829710	589.187859292752	981.556109784873	1497.131161114554	408.169559990773	1012.844092298772	950.589830046037	558.442518777024	1012.006543286236	965.333829287290	282.850391513930	1108.952988111425	798.160062933170	534.393663008226	1081.673845322356	674.065608899083	611.380539754078	1177.588519283406	645.074656929473	536.205769478041	1214.290393400261	542.834299364341	561.002272384256	1038.448636922392	744.710742432109	316.193099837330	934.494797390595	639.300340935204	253.010316527930	1002.588087506302	552.374614901760	319.600938956660	993.203116387736	485.674340291606	330.730568820674	966.822930678861	416.706827149168	321.976137801380	875.433385490650	303.724243555335	272.976587658547	923.548398645605	193.129822610798	346.981075429335	1163.875615589769	453.797695441725	568.468518126784	1066.191866464804	374.772755186279	630.839217823847	1091.451220064095	267.158321082386	583.378391149115	926.220456218840	141.117369514247	557.674971620643	1103.527312281896	138.521867113279	597.471458137199	1001.059380776315	104.918722303127	631.400222440622	1200.702388404782	54.045983282826	626.518348847009	792.068237620535	38.560458068946	391.924374102465	864.755687783217	35.413648889615	309.974089131547	948.177996060768	96.044024317716	335.561891430308	1076.424483344622	43.655099926305	304.613186794480	1019.534959731601	1095.428748977439	110.504738291660	1206.203449813052	912.033297450397	116.936576482695	922.506599779580	1095.540025479752	706.310034934310	1024.889832967856	855.262777340780	690.771885903564	
111	11.027857142857	790.328330020447	1007.259126362703	429.100068508742	986.626937294734	1433.555065193550	252.852069589897	1078.482507487152	1360.870841068416	420.487879618552	988.087559314698	1438.510067322468	590.024626004283	981.963191365125	1496.561177682832	408.953445092553	1012.199423286539	950.067311864952	558.911644675440	1012.310150245820	964.855143212002	283.205439809719	1107.682433141232	797.526605536545	534.394991441529	1080.300396335847	673.249820298205	611.312059057739	1176.058091036981	644.378503543246	536.192446991792	1214.045359878445	544.409921918491	560.618057331687	1035.585881709309	743.253479621805	316.667604793499	930.063116433845	639.319713400258	252.662361460078	996.201423180634	551.445809857404	319.594347468258	985.999153887748	485.190856180884	330.476172541719	959.500039580876	416.620829013376	321.693973187592	868.011303127414	303.704929638495	272.618185755973	915.869833823593	193.126352313407	346.942734546593	1167.869495255453	454.466378290843	568.521507608566	1075.856697845013	370.096423784608	632.320247414152	1106.706521292672	264.112172102533	584.523547431937	949.250289531402	128.210356921018	560.724230278733	1126.508390870994	136.664377897769	598.801861156597	1026.840862223374	96.833529965867	633.719396091157	1228.844957914049	58.390667982015	626.977607331424	784.261980794537	38.584232504541	391.872656757778	856.916539553476	35.376743505330	309.984768398229	940.357225376096	96.062343013651	335.537305673858	1068.563435868278	43.733521985664	304.635917759812	1026.920846804671	1097.789135283661	108.380236191180	1223.018030115220	924.479835801862	116.651047681809	912.828860494879	1096.609313463968	706.698459841925	997.601938292137	848.876100705198	699.666222174647	
